<?xml version="1.0" encoding="UTF-8"?>
<svg version="1.1" xmlns="http://www.w3.org/2000/svg" width="1024" height="1024" viewBox="0 0 1024 1024">
<path d="M0 0 C337.92 0 675.84 0 1024 0 C1024 337.92 1024 675.84 1024 1024 C686.08 1024 348.16 1024 0 1024 C0 686.08 0 348.16 0 0 Z " transform="translate(0,0)"/>
<path d="M0 0 C18.81 0 37.62 0 57 0 C59.32491529 29.0614411 59.32491529 29.0614411 59.78540039 42.59667969 C59.82037628 43.60742554 59.85535217 44.61817139 59.89138794 45.6595459 C59.92722992 46.70002075 59.9630719 47.74049561 60 48.8125 C60.0810462 51.03679307 60.16235308 53.26107666 60.24389648 55.48535156 C60.73620714 69.1643116 61.14806712 82.84509355 61.53515625 96.52734375 C61.57993455 98.10020479 61.62472415 99.67306551 61.66952515 101.2459259 C61.86756099 108.22163132 62.06243934 115.19736846 62.24372196 122.17353153 C62.31961094 125.06392174 62.39923025 127.95420155 62.47964287 130.84446907 C62.53415655 132.85377716 62.58354013 134.86322233 62.63282776 136.87266541 C62.66641891 138.06485184 62.70001007 139.25703827 62.73461914 140.48535156 C62.77553429 142.0542514 62.77553429 142.0542514 62.817276 143.65484619 C62.7410927 145.95777336 62.7410927 145.95777336 64 147 C64.08783542 149.21855264 64.10694609 151.43988496 64.09765625 153.66015625 C64.0962413 154.32462265 64.09482635 154.98908905 64.09336853 155.6736908 C64.08775518 157.80333899 64.07520054 159.93288339 64.0625 162.0625 C64.05748671 163.50325369 64.05292351 164.94400903 64.04882812 166.38476562 C64.03863076 169.92324958 64.0190583 173.46150813 64 177 C68.95 177 73.9 177 79 177 C79 162.48 79 147.96 79 133 C85.27 133 91.54 133 98 133 C98 147.52 98 162.04 98 177 C113.18 177 128.36 177 144 177 C144 162.48 144 147.96 144 133 C149.94 133 155.88 133 162 133 C162 147.52 162 162.04 162 177 C177.84 177 193.68 177 210 177 C210 283.59 210 390.18 210 500 C225.18 500 240.36 500 256 500 C261.95238095 503.57142857 261.95238095 503.57142857 263 507 C263.43002518 510.31733709 263.71759662 512.80489486 261.94921875 515.75 C260.16668559 517.93741533 258.54315498 519.72842251 256 521 C254.36108869 521.09570265 252.71827761 521.12746726 251.07657498 521.12880117 C250.02696696 521.13207336 248.97735895 521.13534555 247.89594463 521.13871691 C246.73145572 521.13723328 245.56696681 521.13574966 244.36719036 521.13422108 C243.13386786 521.13657331 241.90054537 521.13892554 240.62984946 521.14134905 C237.18016748 521.14689193 233.73053616 521.1479086 230.28085321 521.14707164 C226.5378022 521.14724062 222.79475964 521.15314094 219.05171281 521.1583125 C211.6160427 521.16765757 204.18037855 521.17156374 196.7447033 521.17383147 C187.84324107 521.17678855 178.94178678 521.18548299 170.0403287 521.19424575 C148.52322966 521.21511044 127.00612922 521.22556275 105.48902242 521.23437535 C95.31572836 521.23857859 85.14243489 521.24380098 74.96914133 521.24905988 C40.16418074 521.26695096 5.35921999 521.28194867 -29.44574451 521.28938007 C-31.63163155 521.28985484 -33.81751858 521.29033072 -36.00340561 521.29080774 C-37.08743838 521.29104411 -38.17147116 521.29128049 -39.28835341 521.29152403 C-44.78085866 521.29272526 -50.2733639 521.2939407 -55.76586914 521.29516602 C-56.85588474 521.29540617 -57.94590034 521.29564632 -59.06894671 521.29589374 C-94.42696865 521.30379045 -129.78495708 521.3272295 -165.14296439 521.35972196 C-202.50092444 521.3939898 -239.85886488 521.41372834 -277.21684092 521.41702431 C-281.31476924 521.41744187 -285.41269754 521.41792144 -289.51062584 521.41844749 C-290.51969557 521.41857069 -291.52876531 521.41869388 -292.56841292 521.4188208 C-308.83383387 521.42115654 -325.09921603 521.43683718 -341.36462314 521.45728934 C-357.70158333 521.47750622 -374.03849672 521.48304429 -390.3754671 521.47351871 C-400.09035086 521.46828771 -409.80507926 521.47425631 -419.51994077 521.49605338 C-426.00191644 521.50950222 -432.48378447 521.5085372 -438.96576106 521.49565142 C-442.66392192 521.48871511 -446.36178452 521.48821919 -450.05991945 521.50521151 C-454.03664399 521.52333584 -458.01292431 521.51077671 -461.98966694 521.49498463 C-463.14713235 521.50520683 -464.30459776 521.51542904 -465.49713787 521.52596101 C-473.23337926 521.45830102 -473.23337926 521.45830102 -477.18814582 519.09406346 C-480.28357975 515.5164935 -480.32997421 512.85779657 -480.29296875 508.26171875 C-479.86344199 504.9457722 -478.39075646 503.25012373 -476 501 C-473.23382437 499.61691219 -470.98982 499.88789804 -467.8984375 499.90234375 C-466.68671875 499.90556641 -465.475 499.90878906 -464.2265625 499.91210938 C-462.32003906 499.92467773 -462.32003906 499.92467773 -460.375 499.9375 C-459.09625 499.94201172 -457.8175 499.94652344 -456.5 499.95117188 C-453.33328708 499.96298797 -450.16666644 499.97946185 -447 500 C-446.87109375 498.82695313 -446.7421875 497.65390625 -446.609375 496.4453125 C-446.11338165 492.49297389 -445.26598039 488.73072885 -444.25 484.875 C-442.66499705 478.72977692 -441.19862709 472.56800945 -439.8125 466.375 C-437.64789276 456.73567874 -435.38174467 447.12192287 -433.09683228 437.5105896 C-429.06032393 420.54838339 -429.06032393 420.54838339 -425.125 403.5625 C-424.85719727 402.39750977 -424.85719727 402.39750977 -424.58398438 401.20898438 C-423.50614749 396.45092878 -422.53580102 391.67745693 -421.59375 386.890625 C-420.15886957 379.66526699 -418.54156787 372.48896456 -416.86987305 365.31503296 C-412.3737358 345.98546904 -408.21134823 326.5873788 -404.09814453 307.17333984 C-403.21828908 303.02284594 -402.33091421 298.8740123 -401.44044495 294.7257843 C-394.65059559 263.07736373 -388.38843273 231.32914557 -383.20703125 199.375 C-382.36119709 194.16078043 -381.48114898 188.95383801 -380.57421875 183.75 C-377.82398861 167.95842847 -375.1927551 152.15485811 -372.75 136.3125 C-372.62521271 135.50732941 -372.50042542 134.70215881 -372.37185669 133.87258911 C-370.88897714 124.28180807 -369.54804446 114.69313147 -368.43847656 105.05151367 C-368 102 -368 102 -367 100 C-282.85 100 -198.7 100 -112 100 C-110.02 115.345 -110.02 115.345 -108 131 C-106.88828713 138.59048701 -105.75940701 146.17323832 -104.5625 153.75 C-104.41281769 154.70547729 -104.26313538 155.66095459 -104.10891724 156.64538574 C-101.85407573 171.0245599 -99.39003142 185.34266605 -96.63574219 199.63525391 C-95.92204145 203.41260552 -95.24249007 207.19556584 -94.5703125 210.98046875 C-91.63763003 227.46903039 -88.46107105 243.87015286 -84.8359375 260.22363281 C-84.08802612 263.60233994 -83.34771655 266.98257613 -82.61018372 270.36355591 C-78.62175709 288.63252421 -74.41955293 306.83706323 -69.95703125 324.99609375 C-69.66859344 326.21091934 -69.38015564 327.42574493 -69.08297729 328.67738342 C-68.38720423 331.5446947 -67.59819491 334.36024354 -66.7322998 337.18048096 C-62.06850138 353.17594068 -62.34105517 369.12414199 -62.49303031 385.61092019 C-62.52475536 389.64667132 -62.52726023 393.68245089 -62.53315735 397.7183075 C-62.54856264 405.32513441 -62.58940612 412.93159259 -62.6399048 420.53825873 C-62.69621865 429.21325612 -62.72338931 437.88827318 -62.74838197 446.56340849 C-62.8003376 464.37581887 -62.88904746 482.18786595 -63 500 C-56.73 500 -50.46 500 -44 500 C-44 412.88 -44 325.76 -44 236 C-54.56 236 -65.12 236 -76 236 C-76 216.53 -76 197.06 -76 177 C-37.72 177 0.56 177 40 177 C40 167.1 40 157.2 40 147 C25.15 147 10.3 147 -5 147 C-5 122.86528833 -5 122.86528833 -4.5625 113.44921875 C-4.51810791 112.41352249 -4.47371582 111.37782623 -4.42797852 110.31074524 C-4.28953715 107.10279548 -4.14492963 103.89516242 -4 100.6875 C-3.90323005 98.47072124 -3.80687385 96.25392437 -3.7109375 94.03710938 C-3.47945831 88.69113729 -3.23958047 83.34563921 -3 78 C11.52 78 26.04 78 41 78 C41 66.78 41 55.56 41 44 C27.14 44 13.28 44 -1 44 C-0.67 29.48 -0.34 14.96 0 0 Z " transform="translate(620,298)"/>
<path d="M0 0 C1.94925888 -0.00639748 1.94925888 -0.00639748 3.93789673 -0.01292419 C5.371048 -0.01257471 6.80419926 -0.01211319 8.23735046 -0.0115509 C9.75218285 -0.0145443 11.26701447 -0.01794725 12.78184509 -0.02172852 C16.89146332 -0.03055484 21.00106071 -0.03290607 25.11068749 -0.0335443 C27.68021056 -0.03425564 30.24972835 -0.03639156 32.81925011 -0.03904152 C41.78918671 -0.04829077 50.75910847 -0.05237698 59.72904968 -0.05158997 C68.08087325 -0.05098945 76.43263217 -0.06153725 84.78443938 -0.07733363 C91.96252823 -0.09042465 99.14059599 -0.0957732 106.31869668 -0.09513456 C110.60241385 -0.09488001 114.88607358 -0.09770739 119.16977882 -0.10831261 C123.20073613 -0.11801976 127.23158138 -0.11805488 131.26254272 -0.11079597 C132.73790336 -0.10975335 134.21327107 -0.11209384 135.68861961 -0.11815643 C145.74314148 -0.15678092 153.68130968 0.3816327 162.75566101 5.00871277 C163.7392157 5.50113464 164.72277039 5.99355652 165.73612976 6.50090027 C171.17199022 9.63495499 174.74203381 13.29249383 178.25566101 18.44621277 C178.64560242 18.98955261 179.03554382 19.53289246 179.43730164 20.09269714 C184.50408692 27.42870934 184.85732609 34.04012515 184.76347351 42.66105652 C184.75922867 44.1444326 184.75922867 44.1444326 184.75489807 45.65777588 C184.74376243 48.79571472 184.71867004 51.93336116 184.69316101 55.07121277 C184.68312266 57.20727634 184.67399831 59.34334441 184.66581726 61.47941589 C184.64384476 66.69762637 184.60936065 71.91562011 184.56816101 77.13371277 C178.29816101 77.13371277 172.02816101 77.13371277 165.56816101 77.13371277 C165.5307782 74.41121277 165.49339539 71.68871277 165.45487976 68.88371277 C165.40857309 66.22591956 165.3573728 63.5682621 165.30570984 60.91056824 C165.27260364 59.07373919 165.24452784 57.23681191 165.22172546 55.39982605 C165.1879147 52.74819866 165.13558808 50.09745994 165.07987976 47.44621277 C165.07029488 46.2285321 165.07029488 46.2285321 165.06051636 44.98625183 C164.88624155 38.11704912 163.78615964 32.3517114 158.75566101 27.32121277 C153.44198634 23.67457329 149.52232115 21.76082778 143.0160675 21.73930359 C141.71518692 21.7279538 140.41430634 21.716604 139.07400513 21.70491028 C137.64448485 21.70755326 136.21496515 21.71052442 134.78544617 21.71379089 C133.27046077 21.70644639 131.75548097 21.69785905 130.24050903 21.68812561 C126.13503649 21.66594031 122.02976484 21.66297744 117.92424059 21.66487312 C114.49243723 21.66499297 111.06067622 21.65642305 107.62888467 21.64809561 C99.52983858 21.62887208 91.43089554 21.6259738 83.33183289 21.63273621 C74.98722265 21.63937566 66.6430546 21.61651428 58.29853404 21.57942247 C51.12464851 21.54869572 43.950905 21.53736868 36.77695501 21.54125929 C32.49649377 21.54332381 28.21637664 21.53789378 23.93597794 21.5133667 C19.9089094 21.49105278 15.88255816 21.49301531 11.85548592 21.51329422 C10.38173296 21.51669618 8.90793128 21.51165023 7.43424416 21.49731064 C-3.97430332 21.38481159 -3.97430332 21.38481159 -13.43183899 27.13371277 C-19.06669677 34.0213243 -18.03663243 43.01080644 -18.04121399 51.44621277 C-18.05621273 53.02663351 -18.07294341 54.60703868 -18.09132385 56.18742371 C-18.13482008 60.32360089 -18.15495677 64.4595667 -18.1700592 68.59593201 C-18.18969465 72.82609973 -18.2316572 77.05604129 -18.27168274 81.28605652 C-18.34679251 89.56854912 -18.3971999 97.85095245 -18.43183899 106.13371277 C-17.54512512 106.1127655 -16.65841125 106.09181824 -15.74482727 106.07023621 C-12.4086182 106.00146634 -9.07317804 105.95162894 -5.73652649 105.91398621 C-4.30118312 105.89405088 -2.86591902 105.86689203 -1.43086243 105.83195496 C9.68840479 105.56831822 19.24466846 106.35593562 27.81816101 114.25871277 C35.98559044 122.0794117 40.37008929 130.6371802 40.94316101 141.88371277 C40.73074777 151.71541118 36.75689766 160.62276561 30.13066101 167.75871277 C29.28503601 168.54246277 28.43941101 169.32621277 27.56816101 170.13371277 C26.84628601 170.81433777 26.12441101 171.49496277 25.38066101 172.19621277 C18.04212017 177.25165201 10.79160304 178.7262041 2.01786804 178.64837646 C1.00365847 178.65532199 -0.01055111 178.66226752 -1.05549431 178.66942352 C-4.42856699 178.68761052 -7.80092974 178.6774521 -11.17402649 178.66716003 C-13.60260033 178.67422261 -16.03116978 178.68296905 -18.45973206 178.69326782 C-24.35598517 178.71340209 -30.25206013 178.7147994 -36.14832544 178.70664228 C-40.94302384 178.70032622 -45.73766606 178.70149397 -50.53236389 178.70791435 C-51.21641135 178.70881601 -51.90045881 178.70971766 -52.60523498 178.71064664 C-53.99513834 178.71249796 -55.38504169 178.71436052 -56.77494502 178.7162342 C-69.7887869 178.73278763 -82.80252015 178.72411411 -95.81635547 178.70724862 C-107.70746781 178.69255058 -119.59832749 178.70718576 -131.4894073 178.73601878 C-143.71879391 178.76544987 -155.94806406 178.77637448 -168.17748451 178.76683658 C-169.56209435 178.7658141 -170.94670421 178.76481948 -172.33131409 178.76385307 C-173.01245643 178.76337668 -173.69359878 178.76290029 -174.39538181 178.76240947 C-179.18083377 178.7602504 -183.9661748 178.77002211 -188.75160217 178.7846241 C-195.19990403 178.80402685 -201.64785131 178.79700502 -208.096138 178.7724247 C-210.45917782 178.76742152 -212.82225349 178.77089363 -215.18526459 178.78357315 C-218.41789494 178.79954357 -221.64898744 178.78451358 -224.88154602 178.76190186 C-225.81055159 178.77373758 -226.73955715 178.78557331 -227.6967144 178.7977677 C-237.78361362 178.65499629 -245.30642556 173.94219858 -252.52558899 167.18058777 C-255.18241353 164.32776798 -256.7386022 161.65043533 -258.43183899 158.13371277 C-258.95262024 157.25586121 -259.47340149 156.37800964 -260.00996399 155.47355652 C-261.8010492 151.26647451 -261.88929836 147.84045743 -261.80683899 143.32121277 C-261.79052429 142.11863831 -261.79052429 142.11863831 -261.77388 140.89176941 C-261.44823162 128.81820201 -256.88789905 121.1505683 -248.18183899 112.82121277 C-238.02324096 104.97742868 -226.45702575 105.57901658 -214.28266907 105.67961121 C-212.35988895 105.68074111 -210.43710712 105.68010303 -208.514328 105.67784119 C-203.32284291 105.6766987 -198.13173134 105.70013251 -192.94033265 105.72813702 C-187.50447144 105.75322845 -182.06860062 105.75549876 -176.63269043 105.76023865 C-166.35171933 105.77264572 -156.0709194 105.80543658 -145.79002351 105.84563661 C-134.08022096 105.89042502 -122.37041003 105.91235912 -110.66054308 105.93241835 C-86.58421368 105.97417124 -62.50803595 106.04447907 -38.43183899 106.13371277 C-38.44183174 104.77640549 -38.44183174 104.77640549 -38.45202637 103.39167786 C-38.51234144 94.83002553 -38.55791662 86.26844542 -38.58727551 77.7066288 C-38.60287703 73.30576579 -38.62401351 68.90507955 -38.65815735 64.50431824 C-38.69094884 60.25084592 -38.70873339 55.99754276 -38.71647072 51.7439537 C-38.72197893 50.12777929 -38.73273441 48.51161328 -38.74902916 46.89551163 C-38.88564931 32.77350397 -37.39267312 21.57429585 -27.35762024 10.93449402 C-19.26677209 3.2954908 -11.09308998 0.01648041 0 0 Z " transform="translate(491.4318389892578,201.8662872314453)"/>
<path d="M0 0 C0.84058456 0.00404846 1.68116913 0.00809692 2.54722595 0.01226807 C3.43188034 0.00876343 4.31653473 0.00525879 5.22799683 0.00164795 C8.16195954 -0.00717853 11.09568252 -0.00131699 14.02964783 0.00543213 C16.06224107 0.00408574 18.09483401 0.00214543 20.12742615 -0.00036621 C24.39125122 -0.00331872 28.65499262 0.00098424 32.91880798 0.01031494 C38.39359956 0.02170952 43.86819506 0.01515073 49.34297943 0.00317001 C53.54132066 -0.00404516 57.73961515 -0.00176223 61.93795776 0.0034256 C63.95705183 0.00476304 65.97615009 0.00311108 67.99523926 -0.00153351 C70.81346435 -0.00659312 73.63136861 0.00110351 76.4495697 0.01226807 C77.29015427 0.0082196 78.13073883 0.00417114 78.99679565 0 C84.76986991 0.04252921 84.76986991 0.04252921 86.99839783 2.27105713 C87.24449348 4.34438515 87.24449348 4.34438515 87.23890686 6.95333862 C87.24165619 7.94054398 87.24440552 8.92774933 87.24723816 9.94487 C87.23645233 11.57513878 87.23645233 11.57513878 87.22544861 13.23834229 C87.22574066 14.37980209 87.22603271 15.5212619 87.22633362 16.6973114 C87.22493592 20.48499043 87.20935392 24.2724748 87.19371033 28.06011963 C87.18998176 30.680429 87.18713405 33.30073976 87.18513489 35.92105103 C87.17891284 42.12235407 87.16249227 48.32358679 87.14243591 54.52485883 C87.11790924 62.27618227 87.10694506 70.02751708 87.09605408 77.77886963 C87.07656113 91.60965361 87.03649913 105.44028409 86.99839783 119.27105713 C55.64839783 119.27105713 24.29839783 119.27105713 -8.00160217 119.27105713 C-8.08192951 90.11223387 -8.08192951 90.11223387 -8.10210991 75.74940491 C-8.1132094 67.96948824 -8.12731911 60.18961427 -8.15248108 52.409729 C-8.17451045 45.59518384 -8.18615748 38.78068494 -8.19135666 31.96610641 C-8.19506376 29.36087694 -8.20230234 26.75565011 -8.21306229 24.15044022 C-8.22749349 20.51301777 -8.22958363 16.87578855 -8.22865295 13.23834229 C-8.23584351 12.15149643 -8.24303406 11.06465057 -8.2504425 9.94487 C-8.24769318 8.95766464 -8.24494385 7.97045929 -8.24211121 6.95333862 C-8.24395479 6.09238398 -8.24579838 5.23142933 -8.24769783 4.34438515 C-7.66396427 -0.57350391 -4.10246519 0.03022213 0 0 Z " transform="translate(343.00160217285156,677.7289428710938)"/>
<path d="M0 0 C0.90688568 -0.0071553 1.81377136 -0.01431061 2.74813843 -0.02168274 C3.74603897 -0.02437164 4.74393951 -0.02706055 5.77207947 -0.02983093 C6.82105408 -0.03640213 7.87002869 -0.04297333 8.95079041 -0.04974365 C12.43541022 -0.06951364 15.9199868 -0.08114957 19.40464783 -0.09111023 C21.18887052 -0.09722352 21.18887052 -0.09722352 23.00913811 -0.10346031 C29.3088603 -0.12434015 35.6085606 -0.1386317 41.90830994 -0.147995 C48.40933759 -0.15904324 54.91002143 -0.19341979 61.41092777 -0.23316669 C66.41333644 -0.25934703 71.41566354 -0.26768829 76.41813469 -0.27127647 C78.81384532 -0.27614135 81.20955234 -0.28775242 83.605196 -0.30631447 C86.96578549 -0.33072746 90.32549047 -0.32973606 93.68614197 -0.32279968 C94.66987289 -0.33560974 95.65360382 -0.3484198 96.66714478 -0.36161804 C104.42432779 -0.30348828 110.45468037 1.49360402 116.49449158 6.45967102 C122.30639315 13.60000724 123.27642832 18.01596223 122.68199158 27.14717102 C119.78458536 27.28256383 116.89353537 27.38143931 113.99449158 27.45967102 C113.17787048 27.50156555 112.36124939 27.54346008 111.5198822 27.58662415 C107.02827018 27.67754747 105.30407181 27.66406464 101.72496033 24.69013977 C101.05078064 23.85096008 100.37660095 23.0117804 99.68199158 22.14717102 C97.3901236 21.00123703 96.11236276 21.02013278 93.56484985 21.01586914 C92.27157776 21.00985687 92.27157776 21.00985687 90.95217896 21.00372314 C89.53005852 21.00451622 89.53005852 21.00451622 88.07920837 21.00532532 C87.08233002 21.00185089 86.08545166 20.99837646 85.05836487 20.99479675 C82.88830819 20.98743194 80.71824394 20.98209044 78.54817772 20.97850609 C75.11467714 20.97135534 71.6813207 20.95569925 68.24786377 20.93716431 C58.48382034 20.88462853 48.71985495 20.83670619 38.95567322 20.82124329 C32.9880302 20.81117167 27.02074803 20.78186661 21.05324745 20.73992348 C18.77708984 20.72759584 16.5008813 20.72249542 14.22469139 20.72472191 C11.04038764 20.72707017 7.85712202 20.70494323 4.67295837 20.67720032 C3.73095078 20.68380173 2.78894318 20.69040314 1.81838989 20.69720459 C-2.42128679 20.63649206 -4.71165308 20.52503755 -8.37994385 18.23904419 C-11.63734681 14.72312736 -11.707282 11.99171157 -11.67738342 7.34248352 C-11.31800842 5.14717102 -11.31800842 5.14717102 -8.94300842 2.64717102 C-5.57718755 0.72384481 -3.84215332 0.0207769 0 0 Z " transform="translate(516.3180084228516,251.8528289794922)"/>
<path d="M0 0 C3.79389494 1.7244977 5.48122555 3.15288155 7 7 C7.24609566 9.42874527 7.24609566 9.42874527 7.24050903 12.1885376 C7.24325836 13.23739136 7.24600769 14.28624512 7.24884033 15.36688232 C7.24164978 16.5119928 7.23445923 17.65710327 7.22705078 18.83691406 C7.22734283 20.04694092 7.22763489 21.25696777 7.22793579 22.50366211 C7.22678161 25.81746704 7.21675471 29.13102244 7.20278788 32.44478321 C7.19028104 35.90945004 7.18911005 39.37412023 7.18673706 42.83880615 C7.18052215 49.39774211 7.1641112 55.95661136 7.14403808 62.51551795 C7.12167941 69.9834157 7.11068573 77.45131663 7.10064721 84.91923952 C7.07974497 100.2795327 7.04416569 115.63975512 7 131 C0.73 131 -5.54 131 -12 131 C-12.13891144 114.65806131 -12.24597573 98.31636615 -12.31087303 81.9739809 C-12.3418074 74.38585114 -12.38397904 66.79809501 -12.45263672 59.21020508 C-12.51245263 52.59633246 -12.55115223 45.98273042 -12.56453097 39.36859483 C-12.57235139 35.86650132 -12.59071975 32.36518187 -12.63438034 28.86333656 C-12.68273298 24.95342156 -12.68393842 21.0442628 -12.68115234 17.1340332 C-12.702724 15.97381653 -12.72429565 14.81359985 -12.746521 13.6182251 C-12.68757882 5.99277031 -12.68757882 5.99277031 -10.72612381 3.16069603 C-7.26321301 0.11375546 -4.51082205 -0.7677995 0 0 Z " transform="translate(281,667)"/>
<path d="M0 0 C3.01670863 0.62589656 4.34060307 1.95550279 6.08984375 4.43359375 C7.31847494 6.89085613 7.21296668 8.48182637 7.21009827 11.22976685 C7.21147293 12.24221466 7.2128476 13.25466248 7.21426392 14.29779053 C7.21066864 15.4126886 7.20707336 16.52758667 7.20336914 17.67626953 C7.20351517 18.84699005 7.20366119 20.01771057 7.20381165 21.22390747 C7.20323335 24.43857985 7.19820968 27.65320898 7.19123769 30.86787271 C7.1849967 34.22578653 7.18439976 37.58370115 7.18321228 40.94161987 C7.18010117 47.30226923 7.17189073 53.66290144 7.16186279 60.02354324 C7.15069484 67.26407826 7.14518948 74.50461409 7.14016736 81.74515557 C7.12970795 96.64131143 7.11191189 111.53745024 7.08984375 126.43359375 C0.81984375 126.43359375 -5.45015625 126.43359375 -11.91015625 126.43359375 C-12.02592446 110.74356268 -12.11514079 95.05368284 -12.16921711 79.36333179 C-12.19499367 72.07792937 -12.23013316 64.79279727 -12.28735352 57.50756836 C-12.33720595 51.157385 -12.36945127 44.80739741 -12.38059872 38.4570238 C-12.38711459 35.09475288 -12.40241565 31.73304202 -12.43880653 28.3709507 C-12.4750178 24.61650791 -12.48010459 20.86323144 -12.4777832 17.10864258 C-12.49575958 15.9951796 -12.51373596 14.88171661 -12.53225708 13.73451233 C-12.48170774 6.19632754 -12.48170774 6.19632754 -9.51945496 2.24320984 C-6.05331782 -0.16064585 -4.08592914 -0.22435218 0 0 Z " transform="translate(489.91015625,671.56640625)"/>
<path d="M0 0 C0.94746094 -0.00773437 1.89492188 -0.01546875 2.87109375 -0.0234375 C6.21885181 0.47216674 7.30086454 0.8224426 9.5625 3.375 C10.14287221 6.67732632 10.02601655 9.94954 9.953125 13.29296875 C9.94746521 14.26534988 9.94180542 15.23773102 9.93597412 16.23957825 C9.91356929 19.347718 9.86336481 22.45470824 9.8125 25.5625 C9.79244033 27.66860315 9.77418864 29.77472436 9.7578125 31.88085938 C9.71369093 37.04601636 9.6446346 42.21031324 9.5625 47.375 C3.6225 47.375 -2.3175 47.375 -8.4375 47.375 C-8.4375 43.745 -8.4375 40.115 -8.4375 36.375 C-23.6175 36.375 -38.7975 36.375 -54.4375 36.375 C-54.4375 40.335 -54.4375 44.295 -54.4375 48.375 C-60.7075 48.375 -66.9775 48.375 -73.4375 48.375 C-73.52 45.57 -73.6025 42.765 -73.6875 39.875 C-73.72391602 39.00810547 -73.76033203 38.14121094 -73.79785156 37.24804688 C-73.87673864 31.63434037 -73.05644299 26.82171634 -69.4375 22.375 C-63.31030013 16.60739594 -58.11498159 16.70250859 -49.94140625 16.88671875 C-48.75272446 16.89379349 -47.56404266 16.90086823 -46.33934021 16.90815735 C-42.55890834 16.9360489 -38.77998097 16.998783 -35 17.0625 C-32.43036 17.0875894 -29.86069668 17.11040143 -27.29101562 17.13085938 C-21.00600085 17.18585872 -14.72185794 17.26943485 -8.4375 17.375 C-8.48970703 15.91126953 -8.48970703 15.91126953 -8.54296875 14.41796875 C-8.57003906 13.14566406 -8.59710937 11.87335938 -8.625 10.5625 C-8.67720703 8.66564453 -8.67720703 8.66564453 -8.73046875 6.73046875 C-8.4375 3.375 -8.4375 3.375 -7.08569336 1.45068359 C-4.6984114 -0.10736178 -2.82637325 -0.02300982 0 0 Z " transform="translate(772.4375,363.625)"/>
<path d="M0 0 C1.24072266 -0.01611328 2.48144531 -0.03222656 3.75976562 -0.04882812 C4.95150391 -0.04947266 6.14324219 -0.05011719 7.37109375 -0.05078125 C8.46220459 -0.05376221 9.55331543 -0.05674316 10.67749023 -0.05981445 C13.98773387 0.36737701 15.35698123 0.80140519 17.5625 3.3125 C18.06420898 6.17578125 18.06420898 6.17578125 18.05859375 9.625 C18.05923828 10.86507812 18.05988281 12.10515625 18.06054688 13.3828125 C18.04056641 14.67960938 18.02058594 15.97640625 18 17.3125 C18.00708984 18.60929688 18.01417969 19.90609375 18.02148438 21.2421875 C17.95792016 30.64969144 17.95792016 30.64969144 16.44580078 33.18432617 C13.62214261 34.87581235 11.26666106 34.6839982 7.99609375 34.67578125 C6.0615332 34.67481445 6.0615332 34.67481445 4.08789062 34.67382812 C3.41733643 34.66552979 2.74678223 34.65723145 2.0559082 34.64868164 C0.00367112 34.62504229 -2.04727033 34.62812852 -4.09960938 34.63476562 C-14.17065282 34.57934718 -14.17065282 34.57934718 -16.4375 32.3125 C-16.83570611 28.03665127 -16.76654395 23.74640651 -16.75317383 19.45410156 C-16.75001177 17.32044515 -16.77347638 15.18817256 -16.79882812 13.0546875 C-16.80110088 11.70312675 -16.80180472 10.35156227 -16.80078125 9 C-16.80376221 7.76636719 -16.80674316 6.53273438 -16.80981445 5.26171875 C-16.6255188 3.80185547 -16.6255188 3.80185547 -16.4375 2.3125 C-11.47930365 -0.99296423 -5.82425792 -0.01508094 0 0 Z " transform="translate(637.4375,702.6875)"/>
<path d="M0 0 C1.19044922 -0.00386719 2.38089844 -0.00773438 3.60742188 -0.01171875 C5.47430664 0.00568359 5.47430664 0.00568359 7.37890625 0.0234375 C8.61962891 0.01183594 9.86035156 0.00023437 11.13867188 -0.01171875 C12.9262793 -0.00591797 12.9262793 -0.00591797 14.75 0 C15.84111084 0.00338379 16.93222168 0.00676758 18.05639648 0.01025391 C21.35870492 0.45458584 22.73807376 0.89277664 24.94140625 3.3984375 C25.44311523 6.26171875 25.44311523 6.26171875 25.4375 9.7109375 C25.43814453 10.95101562 25.43878906 12.19109375 25.43945312 13.46875 C25.41947266 14.76554688 25.39949219 16.06234375 25.37890625 17.3984375 C25.38599609 18.69523438 25.39308594 19.99203125 25.40039062 21.328125 C25.33682109 30.73641589 25.33682109 30.73641589 23.82470703 33.26806641 C21.00439258 34.96084005 18.6440565 34.78755196 15.375 34.796875 C13.44043945 34.80267578 13.44043945 34.80267578 11.46679688 34.80859375 C10.79624268 34.80230957 10.12568848 34.79602539 9.43481445 34.78955078 C7.38230148 34.77346411 5.3317494 34.78941884 3.27929688 34.80859375 C1.99087891 34.80472656 0.70246094 34.80085937 -0.625 34.796875 C-1.81037354 34.79349121 -2.99574707 34.79010742 -4.21704102 34.78662109 C-5.15475342 34.65852051 -6.09246582 34.53041992 -7.05859375 34.3984375 C-10.43783564 29.32957466 -9.38588298 23.34962336 -9.37109375 17.3984375 C-9.38720703 16.10164062 -9.40332031 14.80484375 -9.41992188 13.46875 C-9.42056641 12.22867188 -9.42121094 10.98859375 -9.421875 9.7109375 C-9.42485596 8.57269531 -9.42783691 7.43445313 -9.4309082 6.26171875 C-9.05859375 3.3984375 -9.05859375 3.3984375 -7.91455078 1.52880859 C-5.23632746 -0.10236399 -3.12184672 0.00969159 0 0 Z " transform="translate(697.05859375,702.6015625)"/>
<path d="M0 0 C2.84155273 -0.38818359 2.84155273 -0.38818359 6.43359375 -0.3984375 C8.3662207 -0.40423828 8.3662207 -0.40423828 10.33789062 -0.41015625 C11.01053955 -0.40387207 11.68318848 -0.39758789 12.3762207 -0.39111328 C14.42662435 -0.37508502 16.47504916 -0.39094123 18.52539062 -0.41015625 C19.81509766 -0.40628906 21.10480469 -0.40242187 22.43359375 -0.3984375 C24.21334595 -0.39336182 24.21334595 -0.39336182 26.02905273 -0.38818359 C29 0 29 0 30.88549805 1.14624023 C32.49567671 3.82446292 32.38877814 5.94712926 32.3984375 9.05859375 C32.40423828 10.84426758 32.40423828 10.84426758 32.41015625 12.66601562 C32.39855469 13.91060547 32.38695312 15.15519531 32.375 16.4375 C32.38660156 17.67822266 32.39820313 18.91894531 32.41015625 20.19726562 C32.40628906 21.38900391 32.40242187 22.58074219 32.3984375 23.80859375 C32.39505371 24.89970459 32.39166992 25.99081543 32.38818359 27.11499023 C31.94385166 30.41729867 31.50566086 31.79666751 29 34 C26.13671875 34.50170898 26.13671875 34.50170898 22.6875 34.49609375 C21.44742188 34.49673828 20.20734375 34.49738281 18.9296875 34.49804688 C17.63289062 34.47806641 16.33609375 34.45808594 15 34.4375 C13.70320312 34.44458984 12.40640625 34.45167969 11.0703125 34.45898438 C1.65341665 34.3953567 1.65341665 34.3953567 -0.87182617 32.86743164 C-2.53403262 30.11603213 -2.37165316 27.884212 -2.36328125 24.6875 C-2.36263672 23.44742188 -2.36199219 22.20734375 -2.36132812 20.9296875 C-2.34521484 19.63289062 -2.32910156 18.33609375 -2.3125 17 C-2.31572266 15.70320312 -2.31894531 14.40640625 -2.32226562 13.0703125 C-2.26698067 3.400471 -2.26698067 3.400471 0 0 Z " transform="translate(623,544)"/>
<path d="M0 0 C1.24007812 -0.00386719 2.48015625 -0.00773438 3.7578125 -0.01171875 C5.70300781 0.00568359 5.70300781 0.00568359 7.6875 0.0234375 C8.98429688 0.01183594 10.28109375 0.00023437 11.6171875 -0.01171875 C12.85726562 -0.00785156 14.09734375 -0.00398437 15.375 0 C16.51324219 0.00338379 17.65148437 0.00676758 18.82421875 0.01025391 C21.6875 0.3984375 21.6875 0.3984375 23.55712891 1.52880859 C25.21938493 4.27817287 25.07643688 6.51510989 25.0859375 9.7109375 C25.09173828 11.57105469 25.09173828 11.57105469 25.09765625 13.46875 C25.08605469 14.76554688 25.07445312 16.06234375 25.0625 17.3984375 C25.07410156 18.69523438 25.08570313 19.99203125 25.09765625 21.328125 C25.09378906 22.56820312 25.08992187 23.80828125 25.0859375 25.0859375 C25.08255371 26.22417969 25.07916992 27.36242187 25.07568359 28.53515625 C24.6875 31.3984375 24.6875 31.3984375 23.55712891 33.26806641 C20.80776463 34.93032243 18.57082761 34.78737438 15.375 34.796875 C14.13492188 34.80074219 12.89484375 34.80460938 11.6171875 34.80859375 C9.67199219 34.79119141 9.67199219 34.79119141 7.6875 34.7734375 C6.39070312 34.78503906 5.09390625 34.79664063 3.7578125 34.80859375 C2.51773438 34.80472656 1.27765625 34.80085937 0 34.796875 C-1.13824219 34.79349121 -2.27648437 34.79010742 -3.44921875 34.78662109 C-6.3125 34.3984375 -6.3125 34.3984375 -8.18212891 33.26806641 C-9.84438493 30.51870213 -9.70143688 28.28176511 -9.7109375 25.0859375 C-9.71480469 23.84585938 -9.71867188 22.60578125 -9.72265625 21.328125 C-9.71105469 20.03132812 -9.69945312 18.73453125 -9.6875 17.3984375 C-9.69910156 16.10164062 -9.71070313 14.80484375 -9.72265625 13.46875 C-9.71878906 12.22867188 -9.71492187 10.98859375 -9.7109375 9.7109375 C-9.70755371 8.57269531 -9.70416992 7.43445313 -9.70068359 6.26171875 C-9.3125 3.3984375 -9.3125 3.3984375 -8.18212891 1.52880859 C-5.43276463 -0.13344743 -3.19582761 0.00950062 0 0 Z " transform="translate(697.3125,623.6015625)"/>
<path d="M0 0 C2.84155273 -0.38818359 2.84155273 -0.38818359 6.43359375 -0.3984375 C8.3662207 -0.40423828 8.3662207 -0.40423828 10.33789062 -0.41015625 C11.01053955 -0.40387207 11.68318848 -0.39758789 12.3762207 -0.39111328 C14.42662435 -0.37508502 16.47504916 -0.39094123 18.52539062 -0.41015625 C19.81509766 -0.40628906 21.10480469 -0.40242187 22.43359375 -0.3984375 C24.21334595 -0.39336182 24.21334595 -0.39336182 26.02905273 -0.38818359 C29 0 29 0 30.88330078 1.14624023 C33.50189173 5.49319281 32.46549644 11.52285204 32.4375 16.4375 C32.4674707 18.29858398 32.4674707 18.29858398 32.49804688 20.19726562 C32.49740234 21.38900391 32.49675781 22.58074219 32.49609375 23.80859375 C32.49887329 25.44526001 32.49887329 25.44526001 32.50170898 27.11499023 C32 30 32 30 30.35595703 32.35595703 C27.32780337 34.46907483 25.48336261 34.50233459 21.80859375 34.49609375 C20.61685547 34.49673828 19.42511719 34.49738281 18.19726562 34.49804688 C16.33618164 34.46807617 16.33618164 34.46807617 14.4375 34.4375 C12.57061523 34.44813477 12.57061523 34.44813477 10.66601562 34.45898438 C1.64813242 34.39551254 1.64813242 34.39551254 -0.85595703 32.86743164 C-2.54039796 30.11790355 -2.37167745 27.89348841 -2.36328125 24.6875 C-2.36263672 23.44742188 -2.36199219 22.20734375 -2.36132812 20.9296875 C-2.34521484 19.63289062 -2.32910156 18.33609375 -2.3125 17 C-2.31572266 15.70320312 -2.31894531 14.40640625 -2.32226562 13.0703125 C-2.26698067 3.400471 -2.26698067 3.400471 0 0 Z " transform="translate(623,624)"/>
<path d="M0 0 C1.24007812 -0.00386719 2.48015625 -0.00773438 3.7578125 -0.01171875 C5.70300781 0.00568359 5.70300781 0.00568359 7.6875 0.0234375 C8.98429688 0.01183594 10.28109375 0.00023437 11.6171875 -0.01171875 C12.85726562 -0.00785156 14.09734375 -0.00398437 15.375 0 C16.51324219 0.00338379 17.65148437 0.00676758 18.82421875 0.01025391 C21.6875 0.3984375 21.6875 0.3984375 23.55712891 1.52880859 C25.21938493 4.27817287 25.07643688 6.51510989 25.0859375 9.7109375 C25.09173828 11.57105469 25.09173828 11.57105469 25.09765625 13.46875 C25.08605469 14.76554688 25.07445312 16.06234375 25.0625 17.3984375 C25.07410156 18.69523438 25.08570313 19.99203125 25.09765625 21.328125 C25.09378906 22.56820312 25.08992187 23.80828125 25.0859375 25.0859375 C25.08255371 26.22417969 25.07916992 27.36242187 25.07568359 28.53515625 C24.6875 31.3984375 24.6875 31.3984375 23.55712891 33.26806641 C20.80776463 34.93032243 18.57082761 34.78737438 15.375 34.796875 C14.13492188 34.80074219 12.89484375 34.80460938 11.6171875 34.80859375 C9.67199219 34.79119141 9.67199219 34.79119141 7.6875 34.7734375 C6.39070312 34.78503906 5.09390625 34.79664063 3.7578125 34.80859375 C2.51773438 34.80472656 1.27765625 34.80085937 0 34.796875 C-1.13824219 34.79349121 -2.27648437 34.79010742 -3.44921875 34.78662109 C-6.3125 34.3984375 -6.3125 34.3984375 -8.18212891 33.26806641 C-9.84438493 30.51870213 -9.70143688 28.28176511 -9.7109375 25.0859375 C-9.71480469 23.84585938 -9.71867188 22.60578125 -9.72265625 21.328125 C-9.71105469 20.03132812 -9.69945312 18.73453125 -9.6875 17.3984375 C-9.69910156 16.10164062 -9.71070313 14.80484375 -9.72265625 13.46875 C-9.71878906 12.22867188 -9.71492187 10.98859375 -9.7109375 9.7109375 C-9.70755371 8.57269531 -9.70416992 7.43445313 -9.70068359 6.26171875 C-9.3125 3.3984375 -9.3125 3.3984375 -8.18212891 1.52880859 C-5.43276463 -0.13344743 -3.19582761 0.00950062 0 0 Z " transform="translate(697.3125,543.6015625)"/>
<path d="M0 0 C1.19496094 -0.00386719 2.38992188 -0.00773438 3.62109375 -0.01171875 C4.87019531 -0.00011719 6.11929688 0.01148438 7.40625 0.0234375 C8.65535156 0.01183594 9.90445313 0.00023437 11.19140625 -0.01171875 C12.98384766 -0.00591797 12.98384766 -0.00591797 14.8125 0 C15.90884766 0.00338379 17.00519531 0.00676758 18.13476562 0.01025391 C20.90625 0.3984375 20.90625 0.3984375 22.7644043 1.51293945 C24.47421668 4.33630508 24.27777025 6.68549915 24.26953125 9.96484375 C24.26888672 11.25455078 24.26824219 12.54425781 24.26757812 13.87304688 C24.25927979 14.54360107 24.25098145 15.21415527 24.24243164 15.9050293 C24.21879229 17.95726638 24.22187852 20.00820783 24.22851562 22.06054688 C24.17309718 32.13159032 24.17309718 32.13159032 21.90625 34.3984375 C19.04882812 34.65722656 19.04882812 34.65722656 15.4375 34.6640625 C14.14457031 34.66664063 12.85164062 34.66921875 11.51953125 34.671875 C10.84486816 34.66768555 10.17020508 34.66349609 9.47509766 34.65917969 C7.41408843 34.6484782 5.35395081 34.65907693 3.29296875 34.671875 C2.00003906 34.66929687 0.70710937 34.66671875 -0.625 34.6640625 C-1.81673828 34.66180664 -3.00847656 34.65955078 -4.23632812 34.65722656 C-7.09375 34.3984375 -7.09375 34.3984375 -9.09375 32.3984375 C-9.49175538 28.28076232 -9.42279717 24.15755088 -9.40942383 20.0222168 C-9.40626696 17.97195136 -9.4297076 15.92313345 -9.45507812 13.87304688 C-9.45572266 12.58333984 -9.45636719 11.29363281 -9.45703125 9.96484375 C-9.46001221 8.77834229 -9.46299316 7.59184082 -9.46606445 6.36938477 C-9.09375 3.3984375 -9.09375 3.3984375 -7.9519043 1.51293945 C-5.26223079 -0.10029922 -3.12253966 0.00963747 0 0 Z " transform="translate(765.09375,702.6015625)"/>
<path d="M0 0 C1.01199463 0.00326294 1.01199463 0.00326294 2.04443359 0.0065918 C4.10567981 0.00975396 6.16549365 -0.0137114 8.2265625 -0.0390625 C9.51949219 -0.03970703 10.81242188 -0.04035156 12.14453125 -0.04101562 C13.33626953 -0.04399658 14.52800781 -0.04697754 15.75585938 -0.05004883 C16.69880859 0.07281494 17.64175781 0.19567871 18.61328125 0.32226562 C21.99252314 5.39112846 20.94057048 11.37107977 20.92578125 17.32226562 C20.94189453 18.6190625 20.95800781 19.91585937 20.97460938 21.25195312 C20.97525391 22.49203125 20.97589844 23.73210938 20.9765625 25.00976562 C20.97954346 26.14800781 20.98252441 27.28625 20.9855957 28.45898438 C20.61328125 31.32226562 20.61328125 31.32226562 19.47143555 33.1940918 C16.77949074 34.82849949 14.6536783 34.69406859 11.51953125 34.68554688 C10.32457031 34.68490234 9.12960937 34.68425781 7.8984375 34.68359375 C6.64933594 34.66748047 5.40023437 34.65136719 4.11328125 34.63476562 C2.86417969 34.63798828 1.61507812 34.64121094 0.328125 34.64453125 C-8.98621492 34.58926818 -8.98621492 34.58926818 -12.38671875 32.32226562 C-12.7590332 29.37304688 -12.7590332 29.37304688 -12.75 25.63476562 C-12.7504985 24.97645752 -12.75099701 24.31814941 -12.75151062 23.63989258 C-12.74916979 22.24785341 -12.73944055 20.85581005 -12.72290039 19.46386719 C-12.69930809 17.33034513 -12.70233835 15.19807244 -12.70898438 13.06445312 C-12.66124449 1.49443049 -11.83937579 0.0649218 0 0 Z " transform="translate(768.38671875,623.677734375)"/>
<path d="M0 0 C1.24458984 -0.00386719 2.48917969 -0.00773438 3.77148438 -0.01171875 C5.72344727 0.00568359 5.72344727 0.00568359 7.71484375 0.0234375 C9.02001953 0.01183594 10.32519531 0.00023437 11.66992188 -0.01171875 C12.91322266 -0.00785156 14.15652344 -0.00398437 15.4375 0 C16.580979 0.00338379 17.72445801 0.00676758 18.90258789 0.01025391 C19.81000732 0.13835449 20.71742676 0.26645508 21.65234375 0.3984375 C24.82567047 5.15842759 23.98618175 10.30575607 23.96801758 15.9050293 C23.9648492 17.95740445 23.98835431 20.00834904 24.01367188 22.06054688 C24.01431641 23.34896484 24.01496094 24.63738281 24.015625 25.96484375 C24.01860596 27.15021729 24.02158691 28.33559082 24.0246582 29.55688477 C23.90179443 30.49459717 23.77893066 31.43230957 23.65234375 32.3984375 C20.09633185 34.7691121 18.52148194 34.65575179 14.3046875 34.6640625 C13.06009766 34.66664063 11.81550781 34.66921875 10.53320312 34.671875 C9.23189453 34.66414062 7.93058594 34.65640625 6.58984375 34.6484375 C5.28466797 34.65617188 3.97949219 34.66390625 2.63476562 34.671875 C1.39146484 34.66929687 0.14816406 34.66671875 -1.1328125 34.6640625 C-2.84803101 34.66067871 -2.84803101 34.66067871 -4.59790039 34.65722656 C-7.34765625 34.3984375 -7.34765625 34.3984375 -9.34765625 32.3984375 C-9.74566163 28.28076232 -9.67670342 24.15755088 -9.66333008 20.0222168 C-9.66017321 17.97195136 -9.68361385 15.92313345 -9.70898438 13.87304688 C-9.70962891 12.58333984 -9.71027344 11.29363281 -9.7109375 9.96484375 C-9.71391846 8.77834229 -9.71689941 7.59184082 -9.7199707 6.36938477 C-9.34765625 3.3984375 -9.34765625 3.3984375 -8.22167969 1.51293945 C-5.4590062 -0.13005227 -3.19765598 0.0094532 0 0 Z " transform="translate(765.34765625,543.6015625)"/>
<path d="M0 0 C0.66 0 1.32 0 2 0 C2 3.63 2 7.26 2 11 C-3.94 11 -9.88 11 -16 11 C-16 10.34 -16 9.68 -16 9 C-15.34 9 -14.68 9 -14 9 C-13.67 8.01 -13.34 7.02 -13 6 C-12.38511719 6.03480469 -11.77023437 6.06960938 -11.13671875 6.10546875 C-10.32847656 6.13253906 -9.52023437 6.15960938 -8.6875 6.1875 C-7.88699219 6.22230469 -7.08648438 6.25710938 -6.26171875 6.29296875 C-3.94170087 6.18434168 -3.94170087 6.18434168 -2.26953125 4.67578125 C-0.79254359 2.91230916 -0.79254359 2.91230916 0 0 Z " transform="translate(637,268)"/>
<path d="M0 0 C1.32 0.66 2.64 1.32 4 2 C4 2.66 4 3.32 4 4 C7.96 4.33 11.92 4.66 16 5 C16 5.33 16 5.66 16 6 C10.72 6 5.44 6 0 6 C0 20.52 0 35.04 0 50 C-0.33 50 -0.66 50 -1 50 C-1.01981934 48.70787598 -1.03963867 47.41575195 -1.06005859 46.08447266 C-1.13598368 41.30220655 -1.22472078 36.52024995 -1.31738281 31.73828125 C-1.35572685 29.66640319 -1.39057005 27.59445731 -1.421875 25.52246094 C-1.46740809 22.54858113 -1.52542118 19.57517038 -1.5859375 16.6015625 C-1.59748871 15.67131256 -1.60903992 14.74106262 -1.62094116 13.78262329 C-1.64081085 12.92188202 -1.66068054 12.06114075 -1.68115234 11.17431641 C-1.69447601 10.41486725 -1.70779968 9.65541809 -1.7215271 8.87295532 C-1.84617052 6.7568774 -1.84617052 6.7568774 -4 5 C-3.01 4.67 -2.02 4.34 -1 4 C-0.26676204 1.98491642 -0.26676204 1.98491642 0 0 Z " transform="translate(764,425)"/>
<path d="M0 0 C0.33 1.65 0.66 3.3 1 5 C0.01 5.33 -0.98 5.66 -2 6 C-2.33 6.66 -2.66 7.32 -3 8 C-3.33 8 -3.66 8 -4 8 C-4.33 15.59 -4.66 23.18 -5 31 C-5.33 31 -5.66 31 -6 31 C-6.07421454 27.06739056 -6.12863136 23.13505278 -6.16479492 19.2019043 C-6.18728333 17.20672299 -6.22540198 15.21173787 -6.26367188 13.21679688 C-6.27333984 11.96318359 -6.28300781 10.70957031 -6.29296875 9.41796875 C-6.3086792 8.26063232 -6.32438965 7.1032959 -6.34057617 5.91088867 C-6 3 -6 3 -4.66918945 1.09887695 C-3 0 -3 0 0 0 Z " transform="translate(694,624)"/>
<path d="M0 0 C0.33 1.98 0.66 3.96 1 6 C-5.27 6 -11.54 6 -18 6 C-18 5.67 -18 5.34 -18 5 C-12.72 5 -7.44 5 -2 5 C-3.05978933 3.71387324 -3.05978933 3.71387324 -5.50390625 3.90234375 C-6.51324219 3.91394531 -7.52257812 3.92554688 -8.5625 3.9375 C-9.57441406 3.94652344 -10.58632813 3.95554687 -11.62890625 3.96484375 C-12.41136719 3.97644531 -13.19382812 3.98804688 -14 4 C-9.60934876 0.40063096 -5.61416521 0 0 0 Z " transform="translate(675,273)"/>
<path d="M0 0 C2.10719075 3.61347159 1.89260572 5.76661223 1.2265625 9.89453125 C0.88407814 13.0772738 1.4121139 15.86460749 2 19 C0.02 19.99 0.02 19.99 -2 21 C-3.02575676 15.72176819 -2.80488532 11.78051836 -1.5625 6.5625 C-1.27503906 5.32628906 -0.98757812 4.09007812 -0.69140625 2.81640625 C-0.46324219 1.88699219 -0.23507813 0.95757813 0 0 Z " transform="translate(229,542)"/>
<path d="M0 0 C0.33 0 0.66 0 1 0 C1 3.63 1 7.26 1 11 C-4.94 11 -10.88 11 -17 11 C-17 10.67 -17 10.34 -17 10 C-10.565 9.505 -10.565 9.505 -4 9 C-3.34 7.35 -2.68 5.7 -2 4 C-1.34786461 2.65949948 -0.68620031 1.32338632 0 0 Z " transform="translate(638,268)"/>
<path d="M0 0 C1.32 0 2.64 0 4 0 C6.42857143 7.42857143 6.42857143 7.42857143 5 11 C4.67 10.34 4.34 9.68 4 9 C3.01 9.495 3.01 9.495 2 10 C2 8.35 2 6.7 2 5 C1.34 4.67 0.68 4.34 0 4 C-0.33 4.99 -0.66 5.98 -1 7 C-1.625 4.625 -1.625 4.625 -2 2 C-1.34 1.34 -0.68 0.68 0 0 Z " transform="translate(546,624)"/>
<path d="M0 0 C1.21171875 0.00322266 2.4234375 0.00644531 3.671875 0.00976562 C4.94289063 0.01814453 6.21390625 0.02652344 7.5234375 0.03515625 C8.8021875 0.03966797 10.0809375 0.04417969 11.3984375 0.04882812 C14.56515042 0.06064422 17.73177106 0.0771181 20.8984375 0.09765625 C20.8984375 0.42765625 20.8984375 0.75765625 20.8984375 1.09765625 C20.13176758 1.11223877 19.36509766 1.12682129 18.57519531 1.1418457 C15.09910257 1.21634845 11.62396782 1.31300271 8.1484375 1.41015625 C6.941875 1.43271484 5.7353125 1.45527344 4.4921875 1.47851562 C3.33203125 1.51396484 2.171875 1.54941406 0.9765625 1.5859375 C-0.09174805 1.61212158 -1.16005859 1.63830566 -2.26074219 1.6652832 C-5.38258568 2.140428 -6.78857545 3.00181672 -9.1015625 5.09765625 C-8.7265625 3.16015625 -8.7265625 3.16015625 -8.1015625 1.09765625 C-5.33538687 -0.28543156 -3.0913825 -0.01444571 0 0 Z "  transform="translate(630.1015625,702.90234375)"/>
<path d="M0 0 C1.32 0.66 2.64 1.32 4 2 C4 2.66 4 3.32 4 4 C7.96 4.33 11.92 4.66 16 5 C16 5.33 16 5.66 16 6 C13.04210873 6.2210949 10.08447236 6.42740245 7.125 6.625 C5.86236328 6.72167969 5.86236328 6.72167969 4.57421875 6.8203125 C3.36572266 6.89765625 3.36572266 6.89765625 2.1328125 6.9765625 C1.38918457 7.02893066 0.64555664 7.08129883 -0.12060547 7.13525391 C-2 7 -2 7 -4 5 C-3.01 4.67 -2.02 4.34 -1 4 C-0.26676204 1.98491642 -0.26676204 1.98491642 0 0 Z " transform="translate(764,425)"/>
<path d="M0 0 C0.66 0.66 1.32 1.32 2 2 C4.10820797 1.6814823 4.10820797 1.6814823 6 1 C5.34 2.32 4.68 3.64 4 5 C3.34 5 2.68 5 2 5 C2 5.66 2 6.32 2 7 C0.35 7.33 -1.3 7.66 -3 8 C-3.33 7.01 -3.66 6.02 -4 5 C-2.0625 2.3125 -2.0625 2.3125 0 0 Z " transform="translate(705,384)"/>
<path d="M0 0 C0.33 0 0.66 0 1 0 C2.5013979 6.60615076 1.30737687 12.41989657 0 19 C-0.66 18.67 -1.32 18.34 -2 18 C-1.03644647 5.33029613 -1.03644647 5.33029613 0 0 Z " transform="translate(246,442)"/>
<path d="M0 0 C0.33 0 0.66 0 1 0 C1.33 5.61 1.66 11.22 2 17 C2.33 17 2.66 17 3 17 C3 19.97 3 22.94 3 26 C2.34 24.68 1.68 23.36 1 22 C0.67 21.67 0.34 21.34 0 21 C-0.08685603 19.43827255 -0.10702219 17.87270656 -0.09765625 16.30859375 C-0.09443359 15.36435547 -0.09121094 14.42011719 -0.08789062 13.44726562 C-0.07951172 12.45404297 -0.07113281 11.46082031 -0.0625 10.4375 C-0.05798828 9.44041016 -0.05347656 8.44332031 -0.04882812 7.41601562 C-0.03700007 4.94395151 -0.02051849 2.47200482 0 0 Z " transform="translate(617,377)"/>
<path d="M0 0 C0.33 0.99 0.66 1.98 1 3 C1.66 3.33 2.32 3.66 3 4 C2.01 4 1.02 4 0 4 C-0.33 4.66 -0.66 5.32 -1 6 C-1.99 5.67 -2.98 5.34 -4 5 C-4 4.34 -4 3.68 -4 3 C-8.29 2.67 -12.58 2.34 -17 2 C-17 1.67 -17 1.34 -17 1 C-14.54159395 0.97308315 -12.08348118 0.95320198 -9.625 0.9375 C-8.92632813 0.92912109 -8.22765625 0.92074219 -7.5078125 0.91210938 C-2.2265625 0.88671875 -2.2265625 0.88671875 0 2 C0 1.34 0 0.68 0 0 Z " transform="translate(701,474)"/>
<path d="M0 0 C0.99 0.33 1.98 0.66 3 1 C2.27683594 1.47179687 2.27683594 1.47179687 1.5390625 1.953125 C-3.25371352 5.09388748 -3.25371352 5.09388748 -6 10 C-6.99 9.67 -7.98 9.34 -9 9 C-8.875 7.1875 -8.875 7.1875 -8 5 C-5.0625 3.375 -5.0625 3.375 -2 2 C-1.34 1.34 -0.68 0.68 0 0 Z " transform="translate(881,814)"/>
<path d="M0 0 C0.66 0 1.32 0 2 0 C2.33 2.31 2.66 4.62 3 7 C1.68 7.99 0.36 8.98 -1 10 C-1.02689216 8.52093108 -1.04634621 7.04172517 -1.0625 5.5625 C-1.07410156 4.73878906 -1.08570313 3.91507812 -1.09765625 3.06640625 C-1 1 -1 1 0 0 Z " transform="translate(506,256)"/>
<path d="M0 0 C2.875 1.75 2.875 1.75 3.875 4.75 C-2 2.875 -2 2.875 -3.125 1.75 C-3.785 2.41 -4.445 3.07 -5.125 3.75 C-5.455 2.43 -5.785 1.11 -6.125 -0.25 C-3.125 -1.25 -3.125 -1.25 0 0 Z " transform="translate(878.125,799.25)"/>
<path d="M0 0 C1.258125 -0.04125 2.51625 -0.0825 3.8125 -0.125 C4.52019531 -0.14820313 5.22789062 -0.17140625 5.95703125 -0.1953125 C8 0 8 0 11 2 C10.01 3.485 10.01 3.485 9 5 C5.54074837 3.7508258 2.85306797 2.32472205 0 0 Z " transform="translate(709,578)"/>
<path d="M0 0 C0.36923077 7.38461538 0.36923077 7.38461538 -1.5 10.5 C-1.995 10.995 -2.49 11.49 -3 12 C-4.35 4.63636364 -4.35 4.63636364 -2.625 1.5 C-1 0 -1 0 0 0 Z " transform="translate(253,420)"/>
<path d="M0 0 C0.33 0.99 0.66 1.98 1 3 C1.66 3.33 2.32 3.66 3 4 C1.68 6.64 0.36 9.28 -1 12 C-1.33 12 -1.66 12 -2 12 C-2 8.33333333 -2 4.66666667 -2 1 C-1.34 0.67 -0.68 0.34 0 0 Z " transform="translate(475,225)"/>
<path d="M0 0 C3.63 0 7.26 0 11 0 C10.67 0.99 10.34 1.98 10 3 C7.36 3.33 4.72 3.66 2 4 C2 3.34 2 2.68 2 2 C1.34 1.34 0.68 0.68 0 0 Z " transform="translate(621,700)"/>
<path d="M0 0 C3 1 3 1 4.6875 4.0625 C5.120625 5.031875 5.55375 6.00125 6 7 C5.401875 6.649375 4.80375 6.29875 4.1875 5.9375 C1.89186786 4.66695302 1.89186786 4.66695302 -1 6 C-0.67 4.02 -0.34 2.04 0 0 Z " transform="translate(522,321)"/>
<path d="M0 0 C2.625 0.9375 2.625 0.9375 5 2 C4.67 2.99 4.34 3.98 4 5 C3.01 5 2.02 5 1 5 C1 4.34 1 3.68 1 3 C0.01 3 -0.98 3 -2 3 C-2 2.34 -2 1.68 -2 1 C-1.34 0.67 -0.68 0.34 0 0 Z " transform="translate(876,802)"/>
<path d="M0 0 C2 2 2 2 2.046875 4.12890625 C1.89992187 5.33353516 1.89992187 5.33353516 1.75 6.5625 C1.66234375 7.36816406 1.5746875 8.17382812 1.484375 9.00390625 C1.32453125 9.66261719 1.1646875 10.32132813 1 11 C0.01 11.495 0.01 11.495 -1 12 C-1.08159574 7.83861737 -0.98248524 4.0527516 0 0 Z " transform="translate(214,613)"/>
<path d="M0 0 C1.32 0.66 2.64 1.32 4 2 C3.34 2 2.68 2 2 2 C2 2.99 2 3.98 2 5 C0.35 5.66 -1.3 6.32 -3 7 C-3 6.34 -3 5.68 -3 5 C-2.34 5 -1.68 5 -1 5 C-0.67 3.35 -0.34 1.7 0 0 Z " transform="translate(484,219)"/>
<path d="M0 0 C1.32 0 2.64 0 4 0 C4 1.98 4 3.96 4 6 C2.35 5.67 0.7 5.34 -1 5 C-0.67 3.35 -0.34 1.7 0 0 Z " transform="translate(265,792)"/>
<path d="M0 0 C0.66 1.32 1.32 2.64 2 4 C1.34 4 0.68 4 0 4 C-0.33 4.99 -0.66 5.98 -1 7 C-1.99 6.34 -2.98 5.68 -4 5 C-4 4.34 -4 3.68 -4 3 C-2 1.375 -2 1.375 0 0 Z " transform="translate(654,734)"/>
<path d="M0 0 C0.66 0.33 1.32 0.66 2 1 C2.125 3.875 2.125 3.875 2 7 C1.34 7.66 0.68 8.32 0 9 C-1.10844919 5.67465243 -0.84454356 3.37817425 0 0 Z " transform="translate(185,744)"/>
<path d="M0 0 C0.66 0.99 1.32 1.98 2 3 C1.34 4.32 0.68 5.64 0 7 C-0.99 6.67 -1.98 6.34 -3 6 C-3 5.34 -3 4.68 -3 4 C-2.34 4 -1.68 4 -1 4 C-0.67 2.68 -0.34 1.36 0 0 Z " transform="translate(524,360)"/>
<path d="M0 0 C1.10844919 3.32534757 0.84454356 5.62182575 0 9 C-0.99 8.67 -1.98 8.34 -3 8 C-1.125 2.25 -1.125 2.25 0 0 Z " transform="translate(556,652)"/>
<path d="M0 0 C1.85776765 3.13498292 2.20140476 5.37471432 2 9 C1.34 9 0.68 9 0 9 C-1.125 2.25 -1.125 2.25 0 0 Z " transform="translate(518,474)"/>
</svg>
